<mxfile host="65bd71144e">
    <diagram id="x1KdHRTjMS7aDW1V2cMM" name="Page-1">
        <mxGraphModel dx="1128" dy="596" grid="1" gridSize="10" guides="1" tooltips="1" connect="1" arrows="1" fold="1" page="1" pageScale="1" pageWidth="850" pageHeight="1100" background="#FFFFFF" math="0" shadow="0">
            <root>
                <mxCell id="0"/>
                <mxCell id="1" parent="0"/>
                <mxCell id="2" value="" style="ellipse;html=1;rotation=90;sketch=1;rounded=0;" parent="1" vertex="1">
                    <mxGeometry x="180" y="20" width="30" height="30" as="geometry"/>
                </mxCell>
                <mxCell id="3" value="" style="endArrow=classic;html=1;rounded=0;align=center;verticalAlign=top;endFill=1;labelBackgroundColor=none;endSize=6;sketch=1;" parent="1" source="2" target="10" edge="1">
                    <mxGeometry relative="1" as="geometry">
                        <mxPoint x="205" y="120" as="targetPoint"/>
                    </mxGeometry>
                </mxCell>
                <mxCell id="4" value="User enter their repository in the frontend" style="rounded=0;whiteSpace=wrap;html=1;arcSize=40;fontColor=#333333;fillColor=#f5f5f5;strokeColor=#666666;sketch=1;" parent="1" vertex="1">
                    <mxGeometry x="270" y="270" width="125" height="50" as="geometry"/>
                </mxCell>
                <mxCell id="5" value="" style="edgeStyle=orthogonalEdgeStyle;html=1;verticalAlign=bottom;endArrow=classic;endSize=8;endFill=1;sketch=1;rounded=0;" parent="1" source="4" target="25" edge="1">
                    <mxGeometry relative="1" as="geometry">
                        <mxPoint x="332.5" y="420" as="targetPoint"/>
                    </mxGeometry>
                </mxCell>
                <mxCell id="11" style="edgeStyle=none;html=1;entryX=0.5;entryY=0;entryDx=0;entryDy=0;sketch=1;rounded=0;" parent="1" source="10" target="14" edge="1">
                    <mxGeometry relative="1" as="geometry">
                        <mxPoint x="345" y="145" as="targetPoint"/>
                    </mxGeometry>
                </mxCell>
                <mxCell id="12" value="Succesful&amp;nbsp;Signin" style="edgeLabel;html=1;align=center;verticalAlign=middle;resizable=0;points=[];sketch=1;rounded=0;" parent="11" vertex="1" connectable="0">
                    <mxGeometry x="-0.54" y="-2" relative="1" as="geometry">
                        <mxPoint x="2" y="12" as="offset"/>
                    </mxGeometry>
                </mxCell>
                <mxCell id="10" value="Signin using e-mail" style="rounded=0;whiteSpace=wrap;html=1;arcSize=40;fontColor=#333333;fillColor=#f5f5f5;strokeColor=#666666;sketch=1;" parent="1" vertex="1">
                    <mxGeometry x="270" y="10" width="125" height="50" as="geometry"/>
                </mxCell>
                <mxCell id="19" style="edgeStyle=none;html=1;sketch=1;rounded=0;" edge="1" parent="1" source="14" target="4">
                    <mxGeometry relative="1" as="geometry"/>
                </mxCell>
                <mxCell id="20" value="Yes" style="edgeLabel;html=1;align=center;verticalAlign=middle;resizable=0;points=[];sketch=1;rounded=0;" vertex="1" connectable="0" parent="19">
                    <mxGeometry x="-0.3209" relative="1" as="geometry">
                        <mxPoint as="offset"/>
                    </mxGeometry>
                </mxCell>
                <mxCell id="21" style="edgeStyle=none;html=1;sketch=1;rounded=0;" edge="1" parent="1" source="14" target="10">
                    <mxGeometry relative="1" as="geometry">
                        <Array as="points">
                            <mxPoint x="480" y="135"/>
                            <mxPoint x="480" y="35"/>
                        </Array>
                    </mxGeometry>
                </mxCell>
                <mxCell id="22" value="No" style="edgeLabel;html=1;align=center;verticalAlign=middle;resizable=0;points=[];sketch=1;rounded=0;" vertex="1" connectable="0" parent="21">
                    <mxGeometry x="-0.7266" y="2" relative="1" as="geometry">
                        <mxPoint as="offset"/>
                    </mxGeometry>
                </mxCell>
                <mxCell id="14" value="" style="shape=rhombus;perimeter=rhombusPerimeter;whiteSpace=wrap;html=1;align=center;sketch=1;rounded=0;" vertex="1" parent="1">
                    <mxGeometry x="307.5" y="120" width="50" height="30" as="geometry"/>
                </mxCell>
                <mxCell id="28" style="edgeStyle=none;html=1;sketch=1;rounded=0;" edge="1" parent="1" source="25" target="26">
                    <mxGeometry relative="1" as="geometry"/>
                </mxCell>
                <mxCell id="29" value="Is a valid repository?" style="edgeLabel;html=1;align=center;verticalAlign=middle;resizable=0;points=[];sketch=1;rounded=0;" vertex="1" connectable="0" parent="28">
                    <mxGeometry x="-0.3486" y="1" relative="1" as="geometry">
                        <mxPoint as="offset"/>
                    </mxGeometry>
                </mxCell>
                <mxCell id="25" value="Contact API with relevant information" style="rounded=0;whiteSpace=wrap;html=1;arcSize=40;fontColor=#333333;fillColor=#f5f5f5;strokeColor=#666666;sketch=1;" vertex="1" parent="1">
                    <mxGeometry x="270" y="430" width="125" height="50" as="geometry"/>
                </mxCell>
                <mxCell id="30" style="edgeStyle=none;html=1;sketch=1;rounded=0;" edge="1" parent="1" source="26" target="4">
                    <mxGeometry relative="1" as="geometry">
                        <mxPoint x="356.5" y="565" as="sourcePoint"/>
                        <mxPoint x="394" y="295" as="targetPoint"/>
                        <Array as="points">
                            <mxPoint x="200" y="565"/>
                            <mxPoint x="200" y="295"/>
                        </Array>
                    </mxGeometry>
                </mxCell>
                <mxCell id="31" value="No" style="edgeLabel;html=1;align=center;verticalAlign=middle;resizable=0;points=[];sketch=1;rounded=0;" vertex="1" connectable="0" parent="30">
                    <mxGeometry x="-0.8542" y="2" relative="1" as="geometry">
                        <mxPoint y="-2" as="offset"/>
                    </mxGeometry>
                </mxCell>
                <mxCell id="32" style="edgeStyle=none;html=1;sketch=1;rounded=0;" edge="1" parent="1" source="26" target="34">
                    <mxGeometry relative="1" as="geometry">
                        <mxPoint x="332.5" y="670" as="targetPoint"/>
                    </mxGeometry>
                </mxCell>
                <mxCell id="33" value="Yes" style="edgeLabel;html=1;align=center;verticalAlign=middle;resizable=0;points=[];sketch=1;rounded=0;" vertex="1" connectable="0" parent="32">
                    <mxGeometry x="-0.3822" y="-2" relative="1" as="geometry">
                        <mxPoint as="offset"/>
                    </mxGeometry>
                </mxCell>
                <mxCell id="26" value="" style="shape=rhombus;perimeter=rhombusPerimeter;whiteSpace=wrap;html=1;align=center;sketch=1;rounded=0;" vertex="1" parent="1">
                    <mxGeometry x="307.5" y="550" width="50" height="30" as="geometry"/>
                </mxCell>
                <mxCell id="37" style="edgeStyle=none;html=1;endArrow=classic;endFill=1;sketch=1;rounded=0;" edge="1" parent="1" source="34" target="35">
                    <mxGeometry relative="1" as="geometry"/>
                </mxCell>
                <mxCell id="38" value="Does it exist in our database" style="edgeLabel;html=1;align=center;verticalAlign=middle;resizable=0;points=[];sketch=1;rounded=0;" vertex="1" connectable="0" parent="37">
                    <mxGeometry x="-0.36" y="1" relative="1" as="geometry">
                        <mxPoint as="offset"/>
                    </mxGeometry>
                </mxCell>
                <mxCell id="34" value="Contact API with relevant information" style="rounded=0;whiteSpace=wrap;html=1;arcSize=40;fontColor=#333333;fillColor=#f5f5f5;strokeColor=#666666;sketch=1;" vertex="1" parent="1">
                    <mxGeometry x="270" y="680" width="125" height="50" as="geometry"/>
                </mxCell>
                <mxCell id="39" style="edgeStyle=none;html=1;endArrow=classic;endFill=1;sketch=1;rounded=0;" edge="1" parent="1" source="35" target="43">
                    <mxGeometry relative="1" as="geometry">
                        <mxPoint x="332.5" y="940" as="targetPoint"/>
                    </mxGeometry>
                </mxCell>
                <mxCell id="42" value="Yes" style="edgeLabel;html=1;align=center;verticalAlign=middle;resizable=0;points=[];sketch=1;rounded=0;" vertex="1" connectable="0" parent="39">
                    <mxGeometry x="0.38" y="-3" relative="1" as="geometry">
                        <mxPoint x="3" y="-49" as="offset"/>
                    </mxGeometry>
                </mxCell>
                <mxCell id="45" style="edgeStyle=none;html=1;endArrow=classic;endFill=1;sketch=1;rounded=0;" edge="1" parent="1" source="35" target="44">
                    <mxGeometry relative="1" as="geometry"/>
                </mxCell>
                <mxCell id="46" value="No" style="edgeLabel;html=1;align=center;verticalAlign=middle;resizable=0;points=[];sketch=1;rounded=0;" vertex="1" connectable="0" parent="45">
                    <mxGeometry x="-0.3285" relative="1" as="geometry">
                        <mxPoint as="offset"/>
                    </mxGeometry>
                </mxCell>
                <mxCell id="35" value="" style="shape=rhombus;perimeter=rhombusPerimeter;whiteSpace=wrap;html=1;align=center;sketch=1;rounded=0;" vertex="1" parent="1">
                    <mxGeometry x="307.5" y="810" width="50" height="30" as="geometry"/>
                </mxCell>
                <mxCell id="48" style="edgeStyle=none;html=1;endArrow=classic;endFill=1;sketch=1;rounded=0;" edge="1" parent="1" target="47">
                    <mxGeometry relative="1" as="geometry">
                        <mxPoint x="386" y="975" as="sourcePoint"/>
                        <mxPoint x="651" y="920" as="targetPoint"/>
                        <Array as="points">
                            <mxPoint x="521" y="975"/>
                            <mxPoint x="521" y="920"/>
                        </Array>
                    </mxGeometry>
                </mxCell>
                <mxCell id="43" value="Update it to the most current version of the two" style="rounded=0;whiteSpace=wrap;html=1;arcSize=40;fontColor=#333333;fillColor=#f5f5f5;strokeColor=#666666;sketch=1;" vertex="1" parent="1">
                    <mxGeometry x="270" y="950" width="125" height="50" as="geometry"/>
                </mxCell>
                <mxCell id="49" style="edgeStyle=none;html=1;endArrow=classic;endFill=1;entryX=0;entryY=0.5;entryDx=0;entryDy=0;sketch=1;rounded=0;" edge="1" parent="1" source="44" target="47">
                    <mxGeometry relative="1" as="geometry">
                        <Array as="points">
                            <mxPoint x="520" y="920"/>
                        </Array>
                    </mxGeometry>
                </mxCell>
                <mxCell id="44" value="Create a GitRepo class and save it" style="rounded=0;whiteSpace=wrap;html=1;arcSize=40;fontColor=#333333;fillColor=#f5f5f5;strokeColor=#666666;sketch=1;" vertex="1" parent="1">
                    <mxGeometry x="457" y="800" width="125" height="50" as="geometry"/>
                </mxCell>
                <mxCell id="51" style="edgeStyle=none;html=1;endArrow=classic;endFill=1;sketch=1;rounded=0;" edge="1" parent="1" source="47" target="50">
                    <mxGeometry relative="1" as="geometry"/>
                </mxCell>
                <mxCell id="52" value="Author Mode or Frequency Mode" style="edgeLabel;html=1;align=center;verticalAlign=middle;resizable=0;points=[];sketch=1;rounded=0;" vertex="1" connectable="0" parent="51">
                    <mxGeometry x="-0.3267" y="3" relative="1" as="geometry">
                        <mxPoint as="offset"/>
                    </mxGeometry>
                </mxCell>
                <mxCell id="47" value="Convert it to the proper DTO and return it as a JSON string" style="rounded=0;whiteSpace=wrap;html=1;arcSize=40;fontColor=#333333;fillColor=#f5f5f5;strokeColor=#666666;sketch=1;" vertex="1" parent="1">
                    <mxGeometry x="640" y="891" width="130" height="60" as="geometry"/>
                </mxCell>
                <mxCell id="53" style="edgeStyle=none;html=1;endArrow=classic;endFill=1;sketch=1;rounded=0;" edge="1" parent="1" target="55">
                    <mxGeometry relative="1" as="geometry">
                        <mxPoint x="625" y="655" as="targetPoint"/>
                        <mxPoint x="687" y="760" as="sourcePoint"/>
                        <Array as="points">
                            <mxPoint x="625" y="760"/>
                        </Array>
                    </mxGeometry>
                </mxCell>
                <mxCell id="56" value="Author mode" style="edgeLabel;html=1;align=center;verticalAlign=middle;resizable=0;points=[];sketch=1;rounded=0;" vertex="1" connectable="0" parent="53">
                    <mxGeometry x="0.0443" y="5" relative="1" as="geometry">
                        <mxPoint as="offset"/>
                    </mxGeometry>
                </mxCell>
                <mxCell id="54" style="edgeStyle=none;html=1;endArrow=classic;endFill=1;sketch=1;rounded=0;" edge="1" parent="1" source="50" target="58">
                    <mxGeometry relative="1" as="geometry">
                        <mxPoint x="792.3571428571429" y="650" as="targetPoint"/>
                        <mxPoint x="736" y="760" as="sourcePoint"/>
                        <Array as="points">
                            <mxPoint x="785" y="760"/>
                        </Array>
                    </mxGeometry>
                </mxCell>
                <mxCell id="57" value="Frequency Mode" style="edgeLabel;html=1;align=center;verticalAlign=middle;resizable=0;points=[];sketch=1;rounded=0;" vertex="1" connectable="0" parent="54">
                    <mxGeometry x="-0.0289" y="-2" relative="1" as="geometry">
                        <mxPoint as="offset"/>
                    </mxGeometry>
                </mxCell>
                <mxCell id="50" value="" style="shape=rhombus;perimeter=rhombusPerimeter;whiteSpace=wrap;html=1;align=center;sketch=1;rounded=0;" vertex="1" parent="1">
                    <mxGeometry x="681" y="745" width="50" height="30" as="geometry"/>
                </mxCell>
                <mxCell id="60" style="edgeStyle=none;html=1;endArrow=classic;endFill=1;entryX=1;entryY=0.5;entryDx=0;entryDy=0;sketch=1;rounded=0;" edge="1" parent="1" source="55" target="4">
                    <mxGeometry relative="1" as="geometry">
                        <mxPoint x="705" y="520" as="targetPoint"/>
                        <Array as="points">
                            <mxPoint x="705" y="570"/>
                            <mxPoint x="705" y="295"/>
                        </Array>
                    </mxGeometry>
                </mxCell>
                <mxCell id="55" value="Render author mode as a chart" style="rounded=0;whiteSpace=wrap;html=1;arcSize=40;fontColor=#333333;fillColor=#f5f5f5;strokeColor=#666666;sketch=1;" vertex="1" parent="1">
                    <mxGeometry x="560" y="590" width="130" height="60" as="geometry"/>
                </mxCell>
                <mxCell id="61" style="edgeStyle=none;html=1;endArrow=classic;endFill=1;entryX=1;entryY=0.5;entryDx=0;entryDy=0;sketch=1;rounded=0;" edge="1" parent="1" source="58" target="4">
                    <mxGeometry relative="1" as="geometry">
                        <mxPoint x="705" y="520" as="targetPoint"/>
                        <Array as="points">
                            <mxPoint x="705" y="570"/>
                            <mxPoint x="705" y="295"/>
                        </Array>
                    </mxGeometry>
                </mxCell>
                <mxCell id="62" value="View another&lt;br&gt;repository" style="edgeLabel;html=1;align=center;verticalAlign=middle;resizable=0;points=[];sketch=1;rounded=0;" vertex="1" connectable="0" parent="61">
                    <mxGeometry x="0.1338" relative="1" as="geometry">
                        <mxPoint x="41" y="215" as="offset"/>
                    </mxGeometry>
                </mxCell>
                <mxCell id="58" value="Render Frequency mode as a chart" style="rounded=0;whiteSpace=wrap;html=1;arcSize=40;fontColor=#333333;fillColor=#f5f5f5;strokeColor=#666666;sketch=1;" vertex="1" parent="1">
                    <mxGeometry x="720" y="590" width="130" height="60" as="geometry"/>
                </mxCell>
            </root>
        </mxGraphModel>
    </diagram>
</mxfile>